<?xml version="1.0" encoding="iso-8859-1"?>
<!-- Generator: Adobe Illustrator 19.0.0, SVG Export Plug-In . SVG Version: 6.00 Build 0)  -->
<svg version="1.1" id="Capa_1" xmlns="http://www.w3.org/2000/svg" xmlns:xlink="http://www.w3.org/1999/xlink" x="0px" y="0px"
	 viewBox="0 0 512 512" style="enable-background:new 0 0 512 512;" xml:space="preserve">
<path style="fill:#884637;" d="M85.037,108.839c-9.632,3.518-19.121,10.787-27.251,16.948c-9.938,7.531-20.227,15.069-29.69,23.239
	C16.007,159.462-6.305,179.249,6.132,197.26c9.552,13.834,25.84,3.107,37.811-0.02c6.386-1.668,11.353,2.573,17.831,2.837
	c7.609,0.309,14.132-6.593,21.114-6.07c5.26,0.394,13.146,7.551,17.28,10.815c4.553,3.594,8.434,7.393,12.108,11.916
	c6.82,8.398,10.081,18.861,12.526,29.355c1.646,7.063,4.319,13.92,5.191,20.98c2.328,18.852,8.279,35.766,19.073,51.509
	c4.514,6.584,11.818,9.747,12.487,18.553c0.823,10.828-5.802,23.63-11.226,32.749c-5.452,9.166-12.486,18.828-16.239,28.852
	c-3.017,8.057-2.11,16.445-2.778,24.859c-0.55,6.925-0.71,14.594-2.714,21.307c-1.591,5.329-4.205,10.33-6.617,15.34
	c-2.966,6.163-8.103,12.402-9.397,19.245c-2.003,10.587,8.778,18.498,18.201,20.154c12.691,2.231,25.881-5.326,27.951-18.561
	c1.232-7.877,0.324-16.247,1.156-24.224c1.009-9.667,1.997-19.456,2.504-29.157c0.428-8.191,0.744-16.925,4.59-24.407
	c2.884-5.61,11.46-18.854,17.959-20.731c1.631,4.415-0.512,10.513-0.798,15.212c-0.333,5.473-0.546,11.242,0.964,16.525
	c3.299,11.545,8.849,22.161,10.514,34.159c1.757,12.656-2.958,25.343-2.926,38.052c0.026,10.125,6.158,13.025,15.469,14.813
	c28.082,5.394,21.051-28.012,17.808-44.865c-2.732-14.202-7.94-28.47-9.516-42.794c-1.072-9.744-5.323-30.577,4.991-36.615
	c12.547-7.345,31.189,3.656,44.207,4.511c12.182,0.8,24.986-1.049,36.905-3.561c13.953-2.941,13.158,6.731,17.572,16.966
	c3.821,8.858,11.027,15.575,20.406,18.372c7.052,2.103,12.715,2.045,17.651,8.521c6.294,8.258,2.344,17.213-0.672,25.865
	c-3.743,10.734-8.804,20.073-14.806,29.699c-4.344,6.966-6.642,15.096,4.317,16.231c9.571,0.992,18.502-4.704,22.249-13.4
	c2.542-5.898,3.855-12.642,5.86-18.754c2.232-6.803,5.73-13.188,8.257-19.862c2.425-6.404,4.453-12.957,6.245-19.564
	c1.018-3.753,0.428-10.043,3.12-12.902c6.843-7.268,21.833,1.88,27.375,6.643c7.029,6.041,6.421,16.184,5.188,24.61
	c-1.701,11.628-5.18,23.721-9.313,34.679c-2.627,6.965-9.458,18.686-2.922,25.044c3.909,3.802,14.384,8.065,18.939,3.984
	c4.047-3.627,5.393-14.264,6.914-19.248c2.37-7.768,3.965-15.756,6.453-23.506c4.593-14.308,11.422-29.592,9.221-45.034
	c-1.804-12.655-13.918-22.328-21.783-31.238c-10.982-12.441-23.393-28.349-20.366-46.063c3.256-19.059,14.569-35.906,17.267-55.336
	c1.321-9.513,4.192-18.808,3.791-28.49c-0.438-10.581-5.859-17.957-10.733-26.937c-16.906-31.151-56.217-23.508-84.202-15.66
	c-12.21,3.424-25.483,10.856-38.454,10.368c-7.143-0.269-16.192-2.915-19.555,4.728c-1.999,4.544-2.949,9.562-5.129,14.117
	c-2.213,4.623-6.723,6.114-9.171,10.465c-3.288,5.844,4.231,13.562,7.815,18.268c4.742,6.227,11.41,12.105,13.943,19.655
	c4.004,11.936-5.05,22.371-12.767,30.127c-1.923,1.933-4.362,4.581-7.144,5.228c-4.189,0.974-4.155-0.825-5.922-4.023
	c-1.828-3.309-4.486-4.683-5.092-8.649c-1.047-6.849,6.013-12.701,4.766-19.446c-1.04-5.625-8.883-11.113-11.875-15.987
	c-4.151-6.763-7.224-13.662-8.942-21.449c-0.986-4.472,0.299-10.549-4.091-13.096c-2.403-1.394-4.759-0.494-6.896-2.865
	c-1.815-2.014-1.996-4.794-1.734-7.298c0.732-6.991,6.614-12.735-2.574-14.54c-9.941-1.952-19.908-7.723-26.486-15.431
	c-7.701-9.025-8.74-21.374-13.833-31.798c-8.161-16.704-17.801-30.088-30.715-43.481c-5.233-5.427-10.959-11.529-18.354-13.836
	c-4.807-1.5-15.84-0.395-19.418-4.267c-5.368-5.811,17.391-20.949,4.974-26.547c-6.166-2.78-13.671,6.297-18.832,8.298
	c-1.644-4.416,3.43-10.695-0.102-14.494c-3.537-3.804-9.236,1.21-12.062,3.664c-4.743,4.118-6.997,9.151-7.208,15.456
	C83.622,99.112,86.151,106.466,85.037,108.839z"/>
<g>
	<path style="fill:#77382D;" d="M17.589,203.958c-5.927-0.035-9.566-4.066-8.212-10.108c2.664-11.891,17.429-13.962,27.248-12.278
		c24.724,4.24,47.717-4.815,61.737-26.492c4.307-6.659,7.404-17.495,16.956-17.27c7.989,0.188,7.78,8.585,5.492,14.074
		c-3.938,9.449-5.639,19.603-3.019,29.939c3.39,13.373,13.297,26.274,20.425,37.906c8.652,14.12,13.187,29.628,17.511,45.424
		c3.784,13.821,9.129,27.586,11.373,41.8c1.065,6.747-0.042,15.807-4.324,21.458c-3.464-1.406-4.593-5.387-7.147-7.966
		c-4.01-4.048-7.252-5.235-10.075-10.79c-4.683-9.217-9.517-18.566-12.475-28.508c-3.148-10.583-4.325-21.591-6.969-32.281
		c-3.476-14.05-9.404-28.766-19.014-39.859c-3.809-4.396-9.029-8.003-13.986-10.906c-2.771-1.623-5.701-3.828-8.74-4.898
		c-4.713-1.659-9.277,0.359-13.674,1.846c-6.403,2.166-12.888,3.789-19.532,5.03C42.597,201.678,32.42,199.634,17.589,203.958z"/>
	<path style="fill:#77382D;" d="M123.517,492.773c3.51-4.12,7.925-7.145,11.02-11.646c6.407-9.319,10.317-21.151,13.158-32.022
		c4.641-17.751-1.844-36.635,4.158-54.045c7.239-20.998,27.951-37.121,43.097-52.219c7.816-7.791,13.075-17.777,20.922-25.37
		c3.411-3.301,9.651-7.969,12.983-1.958c3.13,5.646-1.351,12.788,3.585,18.604c5.548,6.537,20.287,9.925,28.219,11.662
		c13.427,2.94,28.645,0.496,41.39-4.41c10.93-4.207,18.266-11.867,27.916-17.885c14.329-8.937,9.395,15.514,10.488,22.698
		c1.082,7.112,2.58,14.177,6.268,20.46c6.643,11.316,15.524,23.396,27.13,29.934c8.106,4.567,15.821,6.716,15.565,17.204
		c-0.368,15.1-7.18,30.078-13.339,43.615c-3.338,7.336-5.911,14.929-8.943,22.389c-1.585,3.9-2.867,8.764-5.738,11.806
		c-5.09,5.393-16.379,5.748-21.735,0.409c-7.025-7.002,7.038-21.012,11.015-27.077c6.721-10.246,12.986-23.022,10.105-35.611
		c-3.228-14.103-16.021-16.519-28.111-20.31c-7.38-2.314-10.703-7.249-13.283-14.569c-3.185-9.037-1.967-21.019-14.729-17.965
		c-15.959,3.819-33.96,6.384-50.35,4.759c-6.774-0.671-12.505-1.803-18.786-4.325c-3.766-1.512-11.579-4.194-15.246-1.134
		c-2.805,2.34-4.77,10.547-5.699,13.988c-1.738,6.439-0.893,12.84,0.157,19.355c2.2,13.655,6.287,27.161,9.294,40.65
		c2.891,12.966,8.619,25.123,6.722,38.763c-1.491,10.723-11.694,12.699-21.169,10.754c-8.161-1.676-14.394-4.598-15.173-13.347
		c-0.986-11.071,1.84-22.428,0.902-33.617c-0.679-8.101-4.624-16.574-6.496-24.563c-2.335-9.968-4.254-19.832-4.784-30.097
		c-0.118-2.288,0.618-9.831-2.134-10.975c-3.763-1.563-8.701,7.696-10.101,9.942c-7.005,11.247-11.528,23.859-11.529,37.219
		c-0.001,15.155,0.245,31.871-6.485,45.753c-2.448,5.049-4.979,10.948-9.523,14.505C136.22,500.391,130.36,494.226,123.517,492.773z
		"/>
	<path style="fill:#77382D;" d="M430.491,245.896c-2.579-6.282-5.101-12.015-10.623-16.445
		c-13.876-11.133-27.352-3.714-39.138,6.839c-11.214,10.041-12.378,21.905-7.87,35.863c5.467,16.931,13.489,31.18,12.599,49.661
		c-0.91,18.901-6.533,34.099,3.886,51.314c5.803,9.589,16.886,15.163,25.478,22.045c12.16,9.74,21.618,27.116,20.54,43.028
		c-1.308,19.3-10.202,36.46-13.529,55.118c-0.597,3.347-2.465,9.559,1.751,11.484c5.127,2.34,10.306-8.043,12.321-11.483
		c5.684-9.704,8.568-22.128,10.99-33.041c2.487-11.203,5.201-22.945,6.035-34.412c0.54-7.421,1.53-13.689-1.257-20.65
		c-3.152-7.871-8.856-12.423-14.925-18.047c-8.659-8.024-17.576-15.921-23.116-26.543c-5.561-10.663-2.524-25.529,0.731-36.539
		c4.364-14.762,11.662-28.351,17.37-42.576c1.887-4.703,2.283-10.097,2.246-15.126C433.942,261.247,432.766,252.098,430.491,245.896
		z"/>
</g>
<g>
	<path style="fill:#333333;" d="M118.761,114.027c17.694,15.697,17.247,38.238,17.294,60.013c0.015,7.051-3.796,22.239,4.721,25.928
		c2.508,1.086,6.547-0.139,8.714,1.697c1.975,1.673,2.568,6.37,3.089,8.767c1.592,7.339,2.617,21.844,13.096,19.633
		c4.197-0.886,4.445-2.35,7.226,1.995c2.569,4.016,3.194,10.392,6.919,13.542c12.429,10.511,20.483-8.412,22.395-17.489
		c1.546-7.339,2.348-14.023,0.745-21.445c-1.62-7.497-5.497-12.067-8.811-18.805c-7.798-15.855-13.971-32.851-24.046-47.475
		c-6.052-8.784-14.128-17.243-23.096-23.103C141.06,113.402,126.71,106.462,118.761,114.027z"/>
	<path style="fill:#333333;" d="M415.358,195.311c-3.468,0.181-17.21,4.15-18.198,7.342c-0.97,3.13,5.279,9.538,7.389,11.26
		c10.173,8.296,18.989,15.694,24.428,28.304c5.83,13.516,5.037,29.913,2.984,44.232c-0.938,6.546-2.841,13.513-2.772,20.145
		c0.052,4.996,1.793,10.167,2.911,15.028c0.816,3.546,2.535,12.751,7.11,13.694c6.16,1.269,7.716-10.699,12.825-10.673
		c3.017,7.315,3.372,15.811,5.262,23.514c0.835,3.404,2.233,6.886,5.304,8.984c3.811,2.603,4.028,0.954,7.501-1.22
		c3.141-1.965,2.828-2.475,5.56,0.09c2.632,2.472,4.078,6.89,6.605,9.66c5.006,5.488,12.183,8.459,17.409,1.216
		c4.201-5.822,5.491-15.542,3.568-22.424c-2.146-7.68-8.62-9.922-14.179-14.808c-22.102-19.425-16.669-52.128-15.75-78.1
		c0.519-14.674-1.375-30.606-10.917-42.41C453.075,197.613,429.118,189.689,415.358,195.311z"/>
</g>
<g>
	<path style="fill:#2B2B2B;" d="M122.812,117.966c2.146,2.599,5.569,5.345,6.73,7.811c2.435,5.174,4.174,10.799,5.119,16.44
		c2.302,13.727,0.183,27.506-0.339,41.219c-0.216,5.679-0.011,14.95,5.841,17.278c4.436,1.764,9.329-0.936,12.77,3.407
		c5.922,7.475-0.206,20.533,5.573,27.5c4.327,5.217,10.223-0.386,14.406,3.014c5.488,4.46,5.547,16.516,15.809,15.536
		c9.107-0.87,10.506-15.38,10.877-21.78c0.647-11.176-6.199-16.105-15.525-20.296c-13.66-6.139-18.856-24.242-24.445-36.936
		c-4.946-11.234-6.782-23.501-11.993-34.486c-2.89-6.093-5.592-12.336-8.532-18.41c-2.088-4.312-5.841-6.719-10.477-7.535
		c-3.125-0.55-8.118-0.73-7.614,3.836C121.131,115.643,121.84,116.789,122.812,117.966z"/>
	<path style="fill:#2B2B2B;" d="M410.17,199.202c-3.554-0.405-9.652,2.293-10.744,5.955c-1.435,4.815,3.359,4.596,6.595,6.4
		c10.204,5.687,19.518,15.588,24.674,26.035c6.609,13.391,7.373,28.921,3.253,43.074c-3.425,11.766-6.319,23.387-3.986,35.641
		c1.265,6.645,5.361,22.273,15.563,17.797c3.277-1.437,3.729-6.994,8.096-4.563c3.337,1.858,3.441,9.669,3.987,12.985
		c0.73,4.437,0.842,12.546,5.057,15.325c5.098,3.361,8.3-4.717,13.243-3.151c4.216,1.336,6.34,10.501,9.384,13.454
		c4.407,4.274,10.084,3.657,12.635-1.885c6.442-14,2.862-22.222-9.686-30.227c-7.723-4.928-15.955-9.034-21.666-16.457
		c-6.987-9.081-12.448-21.063-14.867-32.246c-2.689-12.429-2.438-26.359-2.965-39.047c-0.488-11.735-1.841-19.757-7.242-30.171
		C434.49,204.598,423.667,196.068,410.17,199.202z"/>
</g>
<path style="fill:#333333;" d="M123.085,465.102c-2.826,2.046-3.903,6.6-5.351,9.687c-1.552,3.309-5.664,9.33-5.056,13.249
	c1.106,7.126,9.742,8.799,15.364,9.719c9.613,1.573,17.652,2.187,23.778-6.494c2.763-3.915,6.69-13.314,4.241-18.063
	c-1.858-3.603-6.342-4.754-9.842-5.762c-3.523-1.014-7.09-2.074-10.793-2.307C130.89,464.846,125.744,466.983,123.085,465.102z"/>
<g>
	<path style="fill:#2B2B2B;" d="M217.339,471.155c-7.323-0.003-20.838-0.11-23.248,8.594c-0.921,3.325,0.408,10.001,1.198,13.455
		c0.983,4.296,2.549,5.328,6.914,6.486c9.87,2.618,23.809,0.298,27.177-10.818C232.286,479.276,226.527,465.722,217.339,471.155z"/>
	<path style="fill:#2B2B2B;" d="M359.584,472.452c-5.876-0.729-10.835,1.468-15.136,5.886c-3.385,3.478-9.545,10.214-4.869,13.257
		c7.426,4.833,15.583,2.937,21.227-3.145c2.048-2.207,5.691-7.61,5.198-10.914C365.43,473.689,361.979,473.514,359.584,472.452z"/>
</g>
<path style="fill:#333333;" d="M426.167,483.693c-6.65-2.613-14.257,2.396-16.123,9.079c-2.442,8.745,3.145,11.964,10.901,13.407
	c6.187,1.151,9.867-2.051,13.204-6.901C439.566,491.408,436.221,487.384,426.167,483.693z"/>
<g>
	<path style="fill:#FFC94E;" d="M123.085,274.432c-3.663,0.225-10.672,3.125-12.77,6.27c-2.062,3.089-1.819,12.264,2.827,12.761
		c3.81,0.408,9.509-5.192,11.662-7.789C127.454,282.476,129.574,274.55,123.085,274.432z"/>
	<path style="fill:#FFC94E;" d="M140.811,313.777c0.597-5.783-8.081-24.308-13.727-14.506c-1.882,3.268-4.804,10.628-2.593,13.954
		C127.425,317.636,139.001,320.178,140.811,313.777z"/>
	<path style="fill:#FFC94E;" d="M155.079,279.188c2.124,4.323,2.256,11.965,7.76,13.952c3.653,1.319,11.042-2.35,12.96-5.521
		c2.666-4.408,1.131-11.99-2.12-15.672C168.048,265.569,160.547,268.109,155.079,279.188z"/>
</g>
<g>
	<path style="fill:#E24242;" d="M176.697,248.058c-2.398,3.023-6.905,11.569-6.508,15.587c0.246,2.485,6.206,10.44,8.458,11.899
		c5.002,3.24,8.304-4.447,8.9-8.463c0.438-2.951,0.875-6.209-0.432-9.067C185.158,253.735,180.163,252.95,176.697,248.058z"/>
	<path style="fill:#E24242;" d="M149.026,279.188c-2.698,0.191-8.006,3.068-10.165,4.751c-4.56,3.553-1.759,9.722,0.87,13.898
		c6.032,9.578,20.527,7.723,19.675-4.617c-0.234-3.392-1.962-7.269-3.44-10.332C153.198,277.147,152.32,278.446,149.026,279.188z"/>
	<path style="fill:#E24242;" d="M124.382,286.106c-4.146,4.174-20.562,22.471-9.744,27.292
		C128.423,319.541,126.179,286.921,124.382,286.106z"/>
</g>
<g>
	<path style="fill:#FFC94E;" d="M216.906,222.117c3.291,8.814,2.34,19.136,1.513,28.319c-0.522,5.8-1.147,11.521-2.907,17.09
		c-1.644,5.205-4.279,10-5.116,15.435c-2.302,14.939,16.25,19.698,27.503,22.87c4.823,1.359,11.525,3.263,16.622,2.323
		c6.07-1.119,11.258-7.44,8.108-13.389c-1.104-2.085-3.472-3.177-4.973-5.189c-2.641-3.538-4.37-7.706-6.377-11.637
		c-4.55-8.91-10.874-16.315-12.346-26.564c-0.426-2.964,0.069-6.299-2.128-8.503c-1.964-1.971-5.896-2.372-8.225-4.061
		c-4.211-3.053-2.852-5.897-2.27-10.867C227.086,221.318,224.444,222.468,216.906,222.117z"/>
	<path style="fill:#FFC94E;" d="M285.651,222.549c-2.901,6.449-6.132,13.037-9.728,19.239c-2.414,4.165-8.556,9.557-8.872,14.269
		c-0.9,13.431,15.471,20.783,19.789,31.661c2.568,6.469,1.118,12.449,1.48,19.065c7.111,2.717,22.376-1.943,28.806-5.431
		c9.651-5.234,11.54-14.919,12.948-25.003c1.718-12.305-1.788-22.536-4.755-34.181c-1.462-5.738-2.579-11.402-3.392-17.232
		c-0.391-2.804-0.194-4.869-2.631-6.398c-4.918-3.084-13.645,1.021-18.518,2.117C295.14,221.925,289.544,222.93,285.651,222.549z"/>
</g>
<g>
	<path style="fill:#F2AE40;" d="M220.365,236.385c3.885,8.176-2.573,18.877,2.153,27.258c3.679,6.524,12.357,10.026,16.87,16.432
		c3.09,4.388,4.571,9.849,6.286,14.898c1.555,4.58,2.3,12.011,8.461,12.551c5.49,0.481,9.534-6.449,9.481-11.273
		c-0.034-3.038-3.191-8.943-4.486-11.672c-2.058-4.34-6.837-7.365-9.586-11.286c-4.411-6.293-6.746-12.164-7.537-19.757
		c-0.682-6.548-0.782-9.262-6.964-11.854c-8.632-3.618-6.085-7.3-7.761-15.672c-0.515-2.573-1.629-6.9-5.178-6.832
		C215.701,219.301,218.671,232.299,220.365,236.385z"/>
	<path style="fill:#F2AE40;" d="M285.651,303.4c1.949-4.54,1.643-10.925,0.865-15.672c-1-6.096-3.729-8.034-8.215-11.663
		c-5.333-4.314-7.425-10.819-10.484-16.787c-1.351-2.636-1.938-1.829-1.512-4.831c0.473-3.333,4.217-6.916,5.93-9.74
		c3.52-5.801,2.006-14.501,6.457-19.132c5.702-5.933,13.974-4.565,16.176,3.553c3.124,11.52-7.268,41.656,13.291,41.429
		c7.454-0.082,18.592-6.722,22.469,2.673c4.766,11.548-8.759,23.646-17.594,28.671c-6.604,3.756-10.772,4.073-18.001,4.396
		c-2.013,0.09-3.353,0.704-5.395,0.256C287.496,306.083,286.859,304.314,285.651,303.4z"/>
</g>
<g>
	<path style="fill:#FBBB8C;" d="M243.28,50.038c-0.145,1.858-0.301,6.449-1.817,7.791c-1.562,1.383-5.456,0.496-7.359,1.194
		c-2.689,0.986-4.747,2.671-5.059,5.932c-0.4,4.174,1.245,3.962,4.507,4.956c3.291,1.003,4.216,0.174,4.972,3.907
		c0.594,2.934-0.44,6.483-0.432,9.514c0.018,7.553,0.166,14.26,7.604,18.108c2.39,1.236,6.944,0.166,8.728,1.434
		c3.085,2.192,0.387,8.039,1.493,11.1c3.2,8.865,17.027-0.015,20.254-4.94c2.159-3.294,2.702-8.092,5.374-10.97
		c2.976-3.206,7.366-2.219,11.144-3.158c6.602-1.641,8.36-11.869,1.081-13.758c-4.322-1.122-10.622,2.828-14.093-0.839
		c-2.948-3.114-1.283-10.546-0.425-14.189c0.895-3.798,2.378-5.423-1.542-8.03c-3.378-2.246-9.263-3.157-13.042-4.594
		C260.71,51.993,250.441,51.305,243.28,50.038z"/>
	<path style="fill:#FBBB8C;" d="M231.517,176.769c-1.167-2.709-3.322-4.706-5.788-7.757c-2.703-3.344-4.787-7.225-7.419-10.573
		c-2.272-2.891-3.631-2.79-6.928-0.793c-1.371,0.83-3.317,2.054-4.387,3.322c-1.346,1.594-1.154,3.481-2.372,5.002
		c-0.938,1.172-2.975,1.263-3.879,2.425c-1.492,1.916-0.834,4.253,0.023,6.3c0.874,2.088,2.303,4.474,4.363,5.63
		c1.747,0.981,4.404,0.488,6.035,1.689c3.23,2.379,1.58,7.651,1.257,11.164c-0.496,5.39,4.258,9.002,9.152,10.267
		c4.717,1.219,12.361,1.049,13.678-4.461c1.292-5.407-2.978-11.245-2.816-16.842C232.499,179.945,232.156,178.251,231.517,176.769z"
		/>
	<path style="fill:#FBBB8C;" d="M242.983,249.002c0,7.179,2.722,33.147,14.347,25.399c3.551-2.367,9.284-2.493,9.75-7.41
		c0.284-2.994-0.742-10.905-2.826-13.111c-2.134-2.259-6.117-1.949-8.867-2.799C251.395,249.847,247.498,249.188,242.983,249.002z"
		/>
</g>
<g>
	<path style="fill:#EFA878;" d="M266.022,56.771c-3.123,0.682-1.015,25.154-1.308,28.209c-0.462,4.812-1.711,9.475-5.28,12.879
		c-4.458,4.253-5.661,6.972,1.206,8.961c5.458,1.581,1.573,4.924,2.647,8.604c1.148,3.931,7.502-0.011,9.984-1.653
		c3.797-2.512,4.989-6.139,6.3-10.343c0.984-3.157,2.329-6.239,5.191-8.104c3.374-2.199,7.253-0.292,10.304-2.811
		c3.771-3.115,3.596-8.131-0.015-11.085c-4.799-3.926-10.087,1.188-14.449-1.125c-4.707-2.496-2.473-9.45-1.263-13.578
		c0.725-2.473,2.702-2.905,1.424-6.028C279.572,57.788,273.624,55.114,266.022,56.771z"/>
	<path style="fill:#EFA878;" d="M230.643,185.454c-1.761,5.438-11.808,1.07-15.383,3.133c-4.362,2.516-0.344,10.255,2.412,13.002
		c4.578,4.561,11.392,3.248,16.116-0.197C240.624,196.407,230.588,190.428,230.643,185.454z"/>
	<path style="fill:#EFA878;" d="M214.334,170.018c-3.543,0.236-6.581-3.234-10.129-3.509c-6.018-0.466-5.604,6.94-3.101,10.739
		c2.599,3.945,6.992,5.425,11.309,4.747C218.53,181.034,215.449,175.682,214.334,170.018z"/>
	<path style="fill:#EFA878;" d="M254.525,252.73c1.812,5.805,0.92,12.535,4.061,18.143c1.831,3.269,6.286,3.566,8.91,0.79
		c2.32-2.455-0.348-9.924-1.2-12.529c-0.693-2.117-1.25-5.839-3.276-7C261.239,251.116,255.996,251.562,254.525,252.73z"/>
</g>
<path style="fill:#E24242;" d="M249.574,112.935c-11.555,4.141-7.27,17.942-13.68,25.564c-3.113,3.702-6.715,8.435-11.01,10.84
	c-3.207,1.796-5.474,0.937-5.308,5.308c0.228,6.005,4.833,15.31,10.163,18.356c4.181,2.389,4.249,3.039,3.88,8.19
	c-0.201,2.808-0.792,6.263,0.011,9.023c0.575,1.975,2.095,3.295,2.136,5.504c0.085,4.487-4.413,8.218-8.619,8.598
	c-2.051,0.185-3.121-1.17-4.805-1.255c-2.28-0.115-3.477,1.906-4.878,3.635c-1.03,1.271-3.737,4.098-3.378,5.84
	c0.435,2.105,4.321,3.169,5.934,3.648c3.633,1.08,9.528,1.156,11.499,4.955c2.966,5.715-5.258,13.173-1.044,18.638
	c4.035,5.233,15.781,5.414,21.622,7.515c3.683,1.325,10.521,5.091,14.564,3.723c4.063-1.374,6.685-7.112,8.405-10.561
	c2.262-4.536,4.535-9.096,6.398-13.799c1.761-4.446,2.808-9.069,4.512-13.52c1.439-3.757,3.849-4.771,7.585-5.22
	c4.464-0.537,8.45-1.62,11.102-5.713c1.98-3.056,1.136-6.479,1.662-9.899c0.879-5.707,3.162-11.311,4.365-16.989
	c1.312-6.189,2.347-12.433,3.611-18.632c2.038-9.995,7.636-20.757,3.384-31.058c-3.644-8.83-10.481-19.181-17.731-25.451
	c-3.621-3.131-10.854-7.622-15.448-3.591c-2.698,2.368-4.22,9.107-6.095,12.327c-1.889,3.245-4.837,6.951-8.388,8.641
	c-3.426,1.631-7.442,1.535-10.84,0.038C256.786,116.537,253.025,111.328,249.574,112.935z"/>
<g>
	<path style="fill:#C13636;" d="M284.814,96.626c-0.619,6.703-3.705,12.933-9.378,16.602c-8.871,5.736-8.688,14.145-0.379,20.24
		c7.643,5.605,15.434,13.993,13.469,24.254c-2.268,11.839-13.568,20.192-24.264,24.257c-5.552,2.11-12.079,2.695-17.936,3.993
		c-3.454,0.765-9.638,1.163-8.5,6.166c1.208,5.313,5.975,7.089,10.6,7.017c5.025-0.079,6.952,2.723,8.13,7.465
		c3.139,12.636-4.314,20.921-12.199,29.512c-6.764,7.369-1.61,11.939,6.52,13.542c4.083,0.805,8.555,2.06,12.743,1.624
		c4.573-0.477,6.383-2.592,8.73-6.327c3.829-6.094,7.738-13.324,9.502-20.351c1.437-5.724,2.117-12.222,7.616-15.541
		c2.732-1.649,6.058-1.679,8.698-3.354c2.964-1.88,4.484-5.371,5.863-8.448c3.242-7.231,4.913-15.042,7.208-22.588
		c2.415-7.939,8.229-15.143,9.057-23.535c0.866-8.773-0.921-17.906-3.373-26.261c-2.247-7.658-5.836-14.884-11.246-20.851
		C302.241,100.253,290.872,92.355,284.814,96.626z"/>
	<path style="fill:#C13636;" d="M231.226,202.637c-2.979,2.211-6.34,4.373-9.036,6.981c-4.457,4.313-2.855,8.883,3.499,9.597
		c5.771,0.648,8.419-2.377,9.321-7.782C235.552,208.188,234.033,204.949,231.226,202.637z"/>
	<path style="fill:#C13636;" d="M247.826,136.817c-4.052,7.178-4.901,14.978-13.397,18.791c-4.228,1.897-11.444,0.924-12.501,6.814
		c-0.882,4.916,4.298,11.025,8.497,13.071c4.226,2.059,10.36-2.583,13.257-5.453c2.865-2.838,1.9-8.154,2.15-11.796
		c0.279-4.054,1.163-8.12,1.718-12.138C247.905,143.54,247.633,140.741,247.826,136.817z"/>
</g>
<path style="fill:#333333;" d="M265.883,295.251c-4.588,4.982-7.046,15.21-7.216,21.913c-0.172,6.789,6.546,6.972,11.89,4.884
	c4.19-1.637,6.354-5.091,8.73-8.746c2.2-3.384,5.144-6.722,6.258-10.613c1.023-3.571,3.704-11.526,0.385-14.798
	c-2.763-2.724-5.337,1.271-7.831,2.865C273.689,293.575,270.159,294.834,265.883,295.251z"/>
<path style="fill:#2B2B2B;" d="M269.96,311.561c2.639-4.447,3.929-10.024,4.951-15.012c0.718-3.506,3.23-8.388,7.216-8.934
	c5.7-0.78,4.875,5.704,4.724,9.894c-0.15,4.136-1.266,8.481-2.745,12.349c-1.973,5.158-9.172,14.494-15.336,14.509
	C260.727,324.387,270.417,314.825,269.96,311.561z"/>
<path style="fill:#FFFFFF;" d="M268.504,267.875c-0.292,1.998-3.287,3.911-4.948,5.096c-1.875,1.338-5.931,1.725-7.298,3.336
	c-2.392,2.818,2.041,8.671,4.076,10.498c5.878,5.274,20.55,5.504,21.347-4.651C282.135,276.378,274.57,272.072,268.504,267.875z"/>
<path style="fill:#333333;" d="M291.803,209.627c-1.376,2.622-4.396,8.055-2.044,10.484c3.127,3.23,11.347,1.162,15.37,1.166
	c3.733,0.004,10.901,0.207,14.064-2.266c2.512-1.964,2.839-8.03,3.256-11.197c0.827-6.283,3.207-9.544,6.865-14.437
	c3.159-4.226,6.27-9.4,5.9-14.853c-0.269-3.966-2.836-8.757-6.821-10.081c-5.309-1.765-13.246,3.891-15.778,8.275
	c-3.104,5.375-5.075,12.368-6.475,18.385C304.533,202.008,301.313,203.479,291.803,209.627z"/>
<path style="fill:#EBEBEC;" d="M263.262,272.826c1.122,5.509,5.684,10.348,9.829,13.921c4.866,4.195,7.977-0.677,8.496-6.032
	c0.495-5.102-4.336-8.818-8.374-11.043c-1.093-0.602-3.599-2.505-4.774-2.598C265.698,266.857,264.098,271.172,263.262,272.826z"/>
<path style="fill:#2B2B2B;" d="M303.744,218.073c-0.129-1.188,2.604-2.578,3.568-3.774c2.708-3.357,4.249-7.494,5.606-11.519
	c2.438-7.233,5.138-14.445,8.876-21.126c1.759-3.143,4.477-5.425,7.4-7.413c2.335-1.588,2.846-2.427,3.674,0.191
	c1.383,4.372-1.009,11.16-2.315,15.267c-1.982,6.234-2.889,12.662-4.82,18.892c-1.09,3.515-1.357,8.332-5.369,9.568
	c-2.259,0.696-4.929-0.001-7.239-0.092C310.299,217.954,307.087,218.567,303.744,218.073z"/>
<path style="fill:#884637;" d="M280.976,61.471c-3.452,2.89-6.17,14.746-3.067,18.499c4.282,5.179,9.382-0.956,13.868-1.589
	c2.133-0.301,1.865,0.242,3.247,1.713c1.53,1.629,3.536,2.646,5.782,2.917c3.703,0.448,6.322-1.083,7.937-4.45
	c1.043-2.176,2.315-6.454,0.691-8.766c-1.497-2.131-6.239-3.149-8.532-4.244c-2.719-1.298-5.381-2.873-8.293-3.695
	C289.023,60.844,285.282,60.877,280.976,61.471z"/>
<path style="fill:#77382D;" d="M281.433,61.928c-0.713,2.282-2.558,5.459-0.477,7.505c2.411,2.371,7.466,1.892,10.33,3.915
	c3.01,2.127,2.373,5.178,4.287,7.824c1.509,2.087,4.738,3.132,7.168,2.758c4.947-0.76,11.866-9.944,7.515-14.284
	c-2.857-2.85-8.491-4.078-12.137-5.383C293.145,62.484,287.037,62.188,281.433,61.928z"/>
<g>
	<path style="fill:#009362;" d="M263.153,35.65c-1.746-0.635-3.012-2.097-4.588-3.087c-2.698-1.696-5.968-2.397-8.905-3.59
		c-4.355-1.768-10.679-4.78-15.525-3.106c-2.927,1.011-5.375,5.294-6.392,8.08c-0.944,2.587,0.063,4.297,1.766,6.273
		c5.022,5.823,15.565,6.851,22.448,9.369c14.51,5.309,30.241,8.009,45.147,12.059c4.525,1.229,8.952,2.976,13.513,4.107
		c6.168,1.53,9.181-3.533,9.203-9.226c0.045-11.589-12.184-10.145-20.615-10.774c-6.333-0.473-12.384-0.82-18.572-2.467
		c-3.133-0.834-6.011-2.035-8.86-3.577C269.431,38.443,266.655,35.894,263.153,35.65z"/>
	<path style="fill:#009362;" d="M274.121,5.717c-4.595,1.16-10.543,6.013-13.596,9.493c-2.329,2.655-2.657,4.158,0.556,5.189
		c4.603,1.477,9.354,2.605,13.954,4.1c4.893,1.591,9.175,4.411,13.888,6.352c3.411,1.405,6.916,3.08,10.501,3.884
		c2.036,0.457,7.768,2.027,9.446,0.239c1.839-1.96-0.046-9.058-0.685-11.176c-1.208-4.008-4.251-7.082-8.141-8.668
		c-4.647-1.895-10.331,0.205-14.551-2.319c-2.198-1.315-2.907-3.366-4.461-5.24C278.507,4.528,276.475,5.677,274.121,5.717z"/>
</g>
<g>
	<path style="fill:#017C50;" d="M289.659,47.532c-4.83,1.174-8.778,2.261-13.933,1.77c-7.14-0.681-12.887-4.832-19.762-6.462
		c-3.053-0.724-6.192-1.214-9.28-1.711c-1.845-0.297-5.545-1.247-7.316-0.176c-3.614,2.187,2.188,5.643,4.005,6.573
		c7.043,3.607,15.288,4.991,22.731,7.673c7.983,2.876,16.31,4.151,24.271,7.151c8.645,3.257,17.885,7.806,25.88,0.302
		c3.796-3.563,1.18-9.004-2.475-11.784C307.775,46.301,296.608,47.201,289.659,47.532z"/>
	<path style="fill:#017C50;" d="M289.659,13.486c-1.674,3.244-11.678,8.804-9.601,12.099c1.266,2.008,5.672,3.426,7.75,4.187
		c4.25,1.556,8.714,2.676,13.049,3.944c2.329,0.681,5.091,1.935,6.74-0.369c1.563-2.183,0.559-5.874,0-8.208
		C305.635,16.945,299.567,11.23,289.659,13.486z"/>
</g>
<path style="fill:#FFC94E;" d="M304.282,46.847c-5.642,1.589-12.946-0.117-18.457-1.588c-6.141-1.638-12.568-3.669-18.514-5.897
	c-5.34-2-10.29-4.484-14.217-8.694c-1.135-1.217-2.585-2.407-3.593-3.712c-1.225-1.588-1.465-1.003,0.154-2.892
	c1.789-2.088,4.88-5.723,7.899-5.779c2.846-0.053,6.988,2.684,9.56,3.834c9.165,4.098,18.307,8.658,28.269,10.389
	c2.876,0.5,7.985-0.148,10.516,1.367C310.698,36.748,306.185,45.858,304.282,46.847z"/>
<path style="fill:#F2AE40;" d="M278.848,33.398c-2.735,1.768-8.63,5.813-4.218,8.879c6.237,4.333,14.447,5.965,21.894,5.432
	c5.244-0.375,11.548-1.61,10.974-8.196c-0.581-6.666-8.748-5.537-13.701-6.485c-2.987-0.572-6.233-2.29-9.275-2.316
	c-2.205-0.019-3.574,1.336-5.388,2.502C279.043,33.272,278.948,33.334,278.848,33.398z"/>
<path d="M497.056,328.88c-4.697-3.821-9.107-7.719-13.034-12.218c-2.906-6.549-5.056-13.79-6.383-20.749
	c-3.02-15.847,1.675-31.492,2.192-47.315c0.427-13.08-1.903-26.587-9.48-37.534c-7.922-11.447-19.983-17.275-33.586-19.066
	c-7.57-0.997-15.205-0.646-22.675,0.937c-3.716,0.787-7.3,1.923-10.795,3.407c-3.777,1.604-6.351,3.637-9.476,5.95
	c-13.887-4.181-31.258-4.501-44.89,0.478c-7.283,2.66-14.313,5.677-21.6,8.121c0.585-2.484,1.358-4.853,2.468-7.184
	c2.43-5.101,5.876-9.622,8.551-14.583c4.123-7.646,6.374-19.437-3.066-24.323c-4.723-2.444-10.152-1.294-14.927,1.286
	c5.2-14.246,8.595-28.813,2.881-43.648c-2.823-7.328-7.245-13.926-12.875-19.396c-2.841-2.761-6.73-6.208-10.91-8.475
	c1.749-2.229,2.818-5.015,2.78-7.729c1.863-0.074,3.715-0.643,5.303-1.598c3.874-2.331,7.227-8.392,6.704-13.375
	c0.672-0.175,1.339-0.41,1.996-0.735c7.311-3.61,9.56-14.888,5.055-21.393c-2.138-3.088-5.326-4.714-8.878-5.56
	c4.094-6.786,2.594-19.594-0.499-25.397c-1.963-3.684-5.3-6.883-9.421-7.937c-3.77-0.964-11.087,0.861-13.415-2.464
	c-2.87-4.097-4.051-7.652-9.737-8.291c-4.993-0.562-9.941,1.637-14.222,3.984c-4.698,2.576-9.003,6.144-12.826,9.882
	c-2.533,2.476-6.039,5.57-7.373,9.148c-6.088-1.582-12.148-1.398-17.482,2.408c-8.209,5.857-3.748,15.372,3.401,19.631
	c2.954,1.759,6.005,3.222,9.123,4.478c-0.345,0.592-0.639,1.238-0.885,1.97c-0.41,1.221-0.705,2.55-0.818,3.83
	c-0.005,0.061-0.019,0.182-0.035,0.331c-3.794,0.431-7.153-0.315-10.223,3.283c-2.435,2.854-2.808,6.806-1.465,10.226
	c1.543,3.928,6.225,6.676,10.669,6.88c-1.417,3.388-2.207,7.318-2.787,10.635c-0.752,4.301-0.424,8.798,2.298,12.368
	c2.962,3.884,7.551,6.037,12.492,7.015c-0.302,1.079-0.492,2.237-0.633,3.398c-4.874-0.012-8.51,7.039-10.136,10.839
	c-2.799,6.541-3.613,15.178-9.065,20.219c-2.613,2.415-6.158,3.1-8.969,5.186c-2.217,1.645-3.916,3.875-4.845,6.449
	c-2.893-0.933-5.96,0.759-8.22,3.18c-2.425,2.597-4.525,4.027-7.389,5.949c-1.919,1.288-3.487,3.017-4.234,5.237
	c-0.881,2.62-0.739,5.526,0.052,8.255c-0.713,0.352-1.385,0.797-2.057,1.294c-2.985-6.378-6.164-12.662-9.27-18.879
	c-6.931-13.872-14.974-26.9-26.991-36.966c-6.383-5.347-13.417-9.905-21.198-12.932c-3.429-1.333-7.834-2.686-12.151-3.05
	c0.644-1.05,1.243-2.111,1.787-3.167c2.861-5.555,8.628-19.387,0.218-22.832c-5.291-2.168-11.988,0.039-17.393,3.395
	c-0.565-2.345-1.47-4.559-2.365-6.112c-3.423-5.941-10.353-4.502-15.188-1.231c-5.706,3.86-9.024,10.345-10.616,16.888
	c-0.915,3.763-2.812,10.783-1.029,15.13c-3.342,1.582-6.535,3.514-9.465,5.255c-8.487,5.044-16.61,10.623-24.418,16.664
	c-7.411,5.734-14.485,11.867-21.201,18.403c-6.531,6.356-13.295,13.02-18.095,20.833c-7.493,12.195-8.751,31.463,5.36,39.682
	c7.619,4.438,16.787,3.304,24.866,0.922c2.901-0.855,5.758-1.889,8.655-2.773c-1.842,7.059-2.572,14.396-3.022,21.664
	c-0.541,8.745-1.104,18.179,1.499,26.67c2.02,6.589,6.19,12.676,12.486,15.783c6.775,3.343,15.328,3.581,22.712,3.052
	c15.382-1.102,29.029-6.655,41.677-14.311c0.346,1.899,0.682,3.793,1.015,5.673c0.452,2.55,0.912,5.101,1.39,7.647
	c-7.551-0.209-16.167,3.368-18.272,11.13c-1.098,4.05,0.147,8.497,3.206,11.365c0.933,0.874,2.05,1.604,3.236,2.089
	c-3.542,5.618-7.557,14.261-1.725,19.658c4.291,3.971,9.664,2.297,13.472-1.136c1.239,2.413,3.605,4.354,6.34,5.189
	c3.425,1.045,9.054,0.591,12.351-1.951c0.907,1.05,1.847,2.07,2.838,3.041c4.028,5.321,9.316,10.978,15.081,12.338
	c-1.542,4.68-3.203,9.325-4.984,13.913c-5.411,13.944-12.386,27.393-20.119,40.184c-3.633,6.009-6.878,12.15-7.11,19.337
	c-0.246,7.65,1.308,14.982,0.251,22.672c-2.084,15.173-9.092,28.842-15.728,42.431c-2.614,5.353-7.982,12.818-5.646,19.032
	c1.967,5.232,8.188,8.289,13.08,10.166c10.706,4.108,23.739,2.922,32.66-4.616c10.041-8.483,13.708-22.891,14.893-35.428
	c1.281-13.551-0.29-27.32,2.038-40.787c1.651-9.547,6.313-17.422,11.934-24.779c-0.599,3.581-0.792,7.286-0.497,11.303
	c0.703,9.607,3.123,18.904,5.203,28.272c2.243,10.101,4.058,20.245,3.939,30.627c-0.102,8.862-3.551,20.153,0.519,28.483
	c6.865,14.052,32.04,12.625,40.64,1.299c5.439-7.163,3.605-16.826,2.499-25.112c-1.346-10.084-3.615-19.988-5.945-29.882
	c-2.648-11.244-5.119-22.564-5.647-34.14c-0.243-5.336-0.151-10.755,0.615-16.049c0.534-3.694,1.507-7.29,2.282-10.927
	c2.544,0.878,5.111,1.691,7.7,2.401c13.471,3.693,27.595,4.985,41.534,4.831c13.206-0.146,26.59-1.43,39.348-4.982
	c-1.826,14.104,5.851,28.514,19.556,34.509c6.882,3.01,19.355,1.857,22.492,10.055c3.015,7.882,0.99,19.131-1.414,26.924
	c-2.681,8.687-7.875,17.025-14.142,23.563c-2.568,2.679-6.144,5.047-7.306,8.747c-1.233,3.928,0.888,7.485,4.045,9.755
	c5.873,4.222,15.939,4.462,22.647,2.284c8.567-2.781,12.612-13.759,16.186-21.16c9.478-19.624,16.686-41.135,21.559-62.477
	c1.066,0.263,2.135,0.513,3.208,0.74c6.162,1.305,15.628,2.196,19.136,8.266c2.087,3.614,1.99,8.727,2.056,12.79
	c0.075,4.702-0.218,9.454-0.895,14.108c-1.338,9.199-4.191,18.095-8.217,26.462c-3.285,6.827-9.746,14.424-8.236,22.52
	c1.506,8.073,9.702,10.322,16.589,12.231c7.868,2.181,14.441,1.829,17.925-6.438c7.68-18.224,12.719-37.913,17.195-57.132
	c3.868-16.611,8.48-36.123-2.745-50.959c-11.365-15.021-30.448-23.447-33.917-43.757c-1.917-11.222,1.775-22.783,5.078-33.385
	c0.316-1.016,0.641-2.028,0.969-3.039c0.396-0.804,0.776-1.616,1.16-2.426c0.285,3.089,0.768,6.153,1.528,9.149
	c1.562,6.153,4.969,14.163,11.319,16.681c2.803,1.111,5.742,0.55,7.977-1.515c1.596-1.474,2.835-3.565,4.167-5.274
	c0.142-0.183,0.708-0.988,1.34-1.885c0.157,2.759,0.04,6.029,0.126,7.097c0.337,4.181,0.51,8.396,1.019,12.56
	c0.717,5.867,3.333,11.761,9.505,13.502c2.786,0.786,5.702,0.467,8.199-1.014c1.138-0.675,2.044-1.539,2.93-2.491
	c1.226,5.559,5.184,11.757,9.679,14.757c11.556,7.713,23.774-3.477,26.609-14.715C513.632,347.33,506.994,336.967,497.056,328.88z
	 M327.991,274.043c-0.897,8.958-6.212,17.583-13.636,22.6c-6.759,4.567-14.735,5.9-22.727,6.448
	c3.89-14.672-5.487-27.767-14.747-38.001c-2.116-2.338-3.995-4.677-4.972-7.742c-0.375-1.177-0.625-2.293-0.956-3.346
	c2.242-1.246,4.268-3.24,5.972-6.258c3.303-5.852,5.722-12.383,8.506-18.497c0.648-1.423,1.375-2.87,2.112-4.337
	c9.055,3.334,19.868,2.433,29.944,0.328c-0.81,5.822,0.703,12.351,2.356,17.64C323.006,253.003,329.087,263.081,327.991,274.043z
	 M261.043,276.659c3.563-1.167,6.73-3.12,9.115-5.891c2.316,2.307,5.085,4.329,6.787,7.125c3.358,5.516-1.242,12.054-7.65,10.027
	c-4.659-1.473-8.773-5.844-12.106-10.475C258.686,277.299,260.107,276.965,261.043,276.659z M256.939,271.884
	c-0.385,0.113-1.682,0.3-3,0.633c-0.685-1.118-1.323-2.199-1.897-3.191c-3.368-5.824-4.824-12.615-7.577-18.647
	c0.572,0.194,1.133,0.388,1.673,0.583c5.273,1.91,10.99,4.109,16.297,4.432c0.016,3.454,1.84,7.278,3.917,10.381
	C263.721,268.787,260.724,270.771,256.939,271.884z M264.913,246.453c-3.987,1.347-9.983-1.619-13.678-2.796
	c-4.808-1.531-9.664-2.959-14.434-4.603c-2.354-0.812-4.431-1.543-4.804-4.241c-0.333-2.412,1.308-5.493,2.236-7.664
	c3.403-7.962,8.4-15.979,9.265-24.666c2.625,0.63,5.397,0.818,8.159,0.647c2.175-0.134,4.336-0.411,6.476-0.794
	c2.717,2.202,5.39,3.571,9.038,4.843c4.526,1.578,9.122,2.992,13.826,3.934c0.665,0.133,1.351,0.266,2.047,0.397
	c-1.555,2.672-2.665,5.631-3.98,8.497c-2.128,4.64-4.257,9.281-6.385,13.921C271.031,237.522,269.14,245.025,264.913,246.453z
	 M231.039,213.482c-0.4,0.836-0.825,1.684-1.259,2.54c-2.81-1.67-5.912-2.07-8.964-3.149c-1.229-0.434-2.446-0.968-3.643-1.549
	c0.913-1.138,1.737-2.376,2.481-3.629c1.496,0.771,3.072,1.319,4.693,1.536c3.098,0.415,6.686-0.314,9.872-1.84
	C233.087,209.294,232.071,211.328,231.039,213.482z M220.946,231.459c-0.268-2.428-0.434-4.969-0.783-7.468
	c1.846,0.463,3.698,0.686,5.496,0.558c-0.943,2.266-1.707,4.566-2.099,6.883c-1.724,10.213,6.597,14.333,14.908,17.242
	c-1.877,9.275,3.655,20.705,8.33,28.263c3.494,5.648,8.598,13.002,14.943,17.007c-1.56,2.267-2.635,5.01-3.784,7.423
	c-0.122,0.257-0.246,0.515-0.369,0.774c-3.301-1.479-7.606-1.302-11.073-1.706c-5.529-0.645-11.081-1.107-16.531-2.292
	c-5.018-1.091-10.353-2.593-14.378-5.927c-4.755-3.939-3.181-8.148-0.793-13.021c4.647-9.482,7.222-19.34,7.434-29.935
	C222.367,243.305,221.599,237.367,220.946,231.459z M263.33,308.603c1.468-3.495,4.192-7.779,5.153-11.958
	c0.67,0.113,1.349,0.185,2.039,0.206c4.959,0.147,9.147-2.211,11.871-5.741c0.764,2.163,1.302,4.388,1.064,6.776
	c-0.664,6.652-5.258,12.411-9.775,17.009c-2.18,2.219-6.679,7.023-10.25,4.701C259.88,317.285,262.128,311.465,263.33,308.603z
	 M324.913,172.575c5.688-2.528,8.969,0.602,7.153,6.265c-2.432,7.583-8.621,13.922-11.907,21.188
	c-1.699,3.759-3.831,9.195-3.469,13.878c-8.147,1.93-17.179,3.822-25.685,3.461c0.588-1.551,1.08-3.118,1.385-4.705
	c3.942,0.118,7.84-0.381,11.163-2.15c6.715-3.574,7.775-10.54,8.67-17.417c0.531-4.078,1.501-8.025,2.701-11.909
	c0.588-0.878,1.223-1.731,1.941-2.546C319.091,176.112,321.822,173.949,324.913,172.575z M304.719,78.79
	c-3.374,4.055-6.925-3.044-11.078-3.056c-4.229-0.012-7.993,5.362-11.701,1.953c-3.871-3.56-1.266-9.955-0.21-14.169
	c1.67,0.563,3.34,1.129,5.013,1.684c5.181,1.719,10.363,3.44,15.557,5.121c1.549,0.501,3.154,1.016,4.777,1.387
	C306.532,74.14,306.42,76.745,304.719,78.79z M265.061,14.911c3.228-2.2,7.348-5.148,11.312-5.678
	c4.669-0.624,4.992,5.009,8.303,7.407c2.696,1.952,6.124,2.3,9.361,2.001c3.962-0.367,8.198-2.043,10.075,2.644
	c1.267,3.164,1.36,6.837,1.121,10.282c-8.441-2.818-17.299-4.615-25.69-7.687c-4.748-1.738-9.439-3.64-14.103-5.592
	c-1.007-0.421-2.035-0.922-3.078-1.404C263.242,16.2,264.14,15.539,265.061,14.911z M254.854,23.325
	c0.851-0.762,1.702-1.527,2.56-2.286c1.98,1.191,4.273,2.05,6.201,2.945c4.671,2.17,9.45,4.08,14.286,5.85
	c8.396,3.074,17.538,6.557,26.536,7.929c-0.309,1.876-0.559,3.736-0.351,5.562c-2.462-0.018-4.867,0.09-7.017,0.145
	c-10.018,0.253-17.709-2.041-26.267-7.106c-5.182-3.067-11.762-7.555-18.672-10.663C253.06,24.963,253.949,24.135,254.854,23.325z
	 M239.592,39.934c-1.746-0.765-3.457-1.602-5.015-2.624c-3.405-2.233-3.678-4.922,0.637-5.891
	c11.717-2.632,23.811,7.857,33.292,13.106c5.171,2.863,10.683,5.375,16.551,6.354c7.682,1.281,15.641-0.678,23.248,0.817
	c3.872,0.761,6.709,2.885,6.08,7.153c-0.906,6.156-6.356,3.781-10.579,2.39c-7.93-2.613-15.845-5.271-23.776-7.883
	c-8.843-2.912-17.663-5.893-26.493-8.843C249.072,43.022,244.369,41.191,239.592,39.934z M241.355,94.559
	c-1.146-2.038-1.204-4.142-0.821-6.244c1.949,0.915,4.286,1.346,5.723,1.265c4.09-0.232,10.031-3.353,10.416-7.862
	c0.088-1.027-1.005-1.577-1.861-1.418c-3.07,0.572-5.198,3.483-8.555,3.825c-1.575,0.16-2.894-0.482-4.193-1.084
	c0.223-0.673,0.438-1.341,0.619-1.999c0.959-3.484,1.888-9.965-2.891-11.213c-2.601-0.679-5.126,1.403-7.545-0.813
	c-3.399-3.115-0.457-6.731,2.719-7.601c1.876-0.514,3.684,0.054,5.554-0.274c3.922-0.688,4.774-5.542,4.758-9.589
	c3.041,0.99,6.133,1.823,9.256,2.559c0.105,0.037,0.213,0.072,0.318,0.109c4.848,1.706,9.699,3.401,14.555,5.084
	c2.384,0.827,4.989,1.452,7.285,2.488c1.896,0.856,0.379,2.139-0.426,3.577c-4.648,8.313,1.66,24.646,12.921,18.978
	c2.504-1.26,3.315-2.22,6.04-0.314c0.503,0.352,0.932,0.715,1.366,1.059c-0.47,1.519-0.855,3.068-1.727,4.466
	c-2.838,4.548-6.495,1.371-10.521,1.259c-2.943-0.082-5.671,1.523-8.046,3.088c-3.638,2.398-7.045,4.388-11.307,5.551
	C258.227,101.301,245.413,101.774,241.355,94.559z M280.096,98.351c-0.142,0.447-0.295,0.895-0.475,1.335
	c-1.605,3.942-4.038,7.54-7.138,10.453c-2.989,2.809-8.438,7.177-12.875,5.324c-1.874-0.783-2.63-2.061-2.909-3.554
	c0.406-1.704,0.784-3.461,0.81-5.127c2.085-0.067,4.112-0.282,5.977-0.62c5.134-0.932,9.586-3.154,13.863-6.076
	C278.315,99.427,279.203,98.822,280.096,98.351z M254.749,176.548c7.755-2.299,14.88-6.695,20.522-12.482
	c11.148-11.434,16.613-29.123,13.256-44.697c-0.315-1.461-2.591-1.431-2.925,0c-3.698,15.833-8.495,31.691-22.617,41.351
	c-3.192,2.184-11.353,7.983-13.217,2.723c-1.806-5.097,1.94-12.825,2.443-17.995c0.362-3.72,0.562-7.458,0.788-11.193
	c0.089-1.474,2.9-12.985,2.081-13.524c3.845,2.533,9.052,2.247,13.318,0.404c5.805-2.508,10.661-7.208,14.263-12.328
	c1.815-2.58,3.887-5.517,4.721-8.594c0.835-3.078,4.229-2.602,6.002-0.525c2.616,3.064,6.463,4.831,9.426,7.561
	c5.253,4.841,9.59,10.756,12.098,17.483c5.121,13.735,0.832,26.752-4.141,39.782c-2.442,6.4-5.032,12.786-6.62,19.466
	c-1.11,4.67-0.327,14.12-4.082,17.513c-4.45,4.021-15.097,1.038-20.08-0.17c-3.154-0.765-6.176-1.819-9.198-2.767
	c7.378-3.142,14.128-7.764,19.663-13.594c10.503-11.064,20.873-31.252,15.017-46.765c-0.68-1.8-3.259-1.999-3.865,0
	c-2.581,8.514-3.151,17.233-7.068,25.39c-3.617,7.531-8.935,14.217-15.617,19.258c-8.562,6.46-41.614,22.57-42.954,1.658
	c-0.383-5.971,3.941-5.919,8.476-6.219C247.912,178.058,251.409,177.539,254.749,176.548z M222.35,154.559
	c1.181-1.735,2.332-1.603,4.282-2.169c5.703-1.655,9.791-5.018,12.635-10.231c2.736-5.014,3.915-10.527,5.602-15.927
	c0.672-2.151,1.445-4.203,2.456-6.177c-0.099,0.758-0.188,1.519-0.244,2.28c-0.347,1.418-0.658,2.846-0.861,4.299
	c-0.758,5.402-1.122,10.855-1.898,16.255c-1.206,8.393-4.156,16.737-3.443,25.104c-3.099,0.57-5.94,1.584-8.142,3.383
	c0.775-0.633-5.159-5.17-5.731-5.608c-2.013-1.542-2.882-3.66-4.098-5.844C221.789,157.917,220.982,156.569,222.35,154.559z
	 M218.374,174.689c1.542-4.384,6.232,1.438,10.229,3.771c-1.257,6.02,0.686,12.995,4.517,17.718
	c0.104,0.128,0.216,0.244,0.322,0.368c-2.352,1.86-4.601,4.108-7.787,4.039c-3.18-0.068-8.053-3.812-9.628-6.615
	c-2.566-4.567,2.037-6.144,3.305-9.908c0.502-1.49,0.449-2.919,0.206-4.475C219.355,178.41,217.997,175.759,218.374,174.689z
	 M203.849,168.042c1.987-1.746,4.512-2.259,6.288-4.442c1.617-1.989,2.225-4.929,4.641-5.691c0.107,2.555,0.723,5.315,1.889,7.607
	c-1.251,0.624-2.383,1.503-3.295,2.667c-1.48,1.89-2.136,4.124-1.974,6.505c0.145,2.135,1.138,3.931,1.182,5.681
	c-1.868-1.121-3.882-1.146-5.934-2.341C203.408,176.143,200.326,171.137,203.849,168.042z M213.16,202.482
	c-1.256,1.174-2.437,2.475-3.4,3.872c-1.911-1.697-3.695-3.593-5.169-5.641c-0.521-0.724-0.987-1.492-1.443-2.269
	c1.902-1.124,3.775-2.288,5.594-3.517c0.367,1.275,0.931,2.582,1.757,3.94C211.245,200.094,212.143,201.321,213.16,202.482z
	 M198.494,182.608c0.33-0.296,0.647-0.594,0.952-0.898c1.962,2.279,4.984,4.586,8.078,5.318c-2.378,1.56-4.766,3.112-7.161,4.658
	c-1.012-2.669-2.102-5.315-3.235-7.944C197.608,183.377,198.077,182.982,198.494,182.608z M194.663,203.285
	c0.382,1.193,0.747,2.392,1.073,3.603c1.711,6.358,2.643,12.956,2.188,19.547c-0.412,5.976-2.477,18.064-9.882,19.403
	c-10.424,1.886-6.322-20.104-17.835-19.408c-2.871,0.174-4.246,2.285-6.683,3.011c-1.965,0.585-2.234-0.011-2.931-1.773
	c1.564-1.303,3.124-2.596,4.683-3.872c7.972-6.527,16.165-12.663,25.006-17.971C191.72,204.963,193.188,204.122,194.663,203.285z
	 M170.659,238.939c0.523,1.651,1.048,3.299,1.68,4.912c-0.974,3.177-1.891,6.374-3.275,9.419c-2.333,5.13-5.639,9.934-9.702,13.839
	c-4.022,3.867-8.888,6.9-14.122,8.838c-2.882,1.067-5.985,1.485-8.983,2.169c-2.052-8.828-3.482-17.812-5.358-26.684
	c7.881-5.609,15.426-11.83,22.835-18.026c1.949,3.243,5.089,5.623,9.212,5.449c1.407-0.059,2.753-0.44,4.008-1.082
	c0.47-0.241,2.288-1.836,2.958-2.04C169.529,236.057,170.506,238.454,170.659,238.939z M164.71,272.456
	c0.846-0.827,1.685-1.724,2.509-2.669c0.837,1.284,1.749,2.527,2.762,3.663c2.914,5.197,5.181,11.662,0.835,13.968
	c-3.729,1.978-6.992,0.197-9.573-2.612c-1.165-2.21-2.589-4.31-4.024-6.302C160.117,276.537,162.698,274.422,164.71,272.456z
	 M172.088,263.177c2.213-3.588,4.013-7.532,5.033-11.551c1.067,1.074,2.283,1.983,3.665,2.674c3.238,3.803,5.96,8.191,4.813,13.454
	c-0.901,4.135-4.666,4.678-7.918,2.676c-0.597-0.367-1.136-0.819-1.642-1.312C174.766,266.901,173.383,264.87,172.088,263.177z
	 M125.696,114.85c1.601,0.334,3.181,0.8,4.732,1.317c2.725,0.908,5.311,2.09,7.827,3.471c6.342,3.482,12.103,7.991,17.219,13.094
	c9.482,9.458,15.515,21.119,21.444,32.975c5.139,10.277,11.142,20.425,15.436,31.17c-6.928,4.519-13.793,9.132-20.346,14.118
	c-4.249,3.233-8.387,6.603-12.489,10.017c-0.546-5.674-0.386-12.163-2.487-17.391c-1.854-4.613-5.772-6.293-10.487-6.048
	c-3.186,0.166-4.488,0.616-5.851-2.66c-1.451-3.487-1.632-7.593-1.96-11.296c-0.737-8.323-0.554-16.656,0.088-24.978
	c0.588-7.633,1.268-15.326-0.554-22.863c-1.041-4.308-3.072-8.511-5.838-12.142c-0.458-0.669-0.949-1.335-1.478-2.004
	c-1.559-1.974-3.429-3.664-5.402-5.21c-0.785-0.615-1.592-1.191-2.415-1.745C124.121,114.719,125.121,114.73,125.696,114.85z
	 M87.33,98.659c0.906-4.652,2.158-9.542,5.168-13.324c1.286-1.616,2.846-2.61,4.434-3.857c2.214-1.738,1.853-0.568,2.451,1.872
	c0.493,2.014,0.522,3.934,0.988,5.65c-3.224,3.935-6.084,9.024-7.212,14.207c-2.168-0.161-4.334,0.084-6.475,0.592
	C86.929,102.085,87.009,100.304,87.33,98.659z M25.21,200.517c-7.437,0.567-13.298-2.749-15.355-10.107
	c-1.997-7.145,0.519-14.06,4.449-20.055c3.526-5.379,7.939-10.374,12.755-15.061c4.01-0.536,8.006-1.084,11.679,1.276
	c5.262,3.38,3.389,10.154,3.888,15.414c0.477,5.019,2.508,8.088,6.164,11.399c2.695,2.441,3.686,4.409,2.596,8.049
	c-0.287,0.958-0.563,1.755-0.773,2.512c-0.901,0.122-1.805,0.27-2.717,0.459C40.231,195.994,33.086,199.917,25.21,200.517z
	 M95.486,263.24c-13.018,4.092-35.633,8.047-43.888-6.206c-4.667-8.058-4.151-18.211-3.824-27.203
	c0.224-6.183,0.924-12.322,1.515-18.469c2.665,13.174,9.412,26.09,22.192,31.426c7.761,3.241,16.482,3.428,24.653,1.823
	c4.754-0.933,9.321-2.537,13.78-4.406c1.962-0.822,4.113-1.479,5.866-2.548c1.479,4.709,2.622,9.547,3.605,14.4
	C111.86,256.677,103.924,260.588,95.486,263.24z M51.964,203.807c5.213-0.625,10.14,0.82,15.381,0.808
	c4.986-0.011,9.831-1.631,14.368-3.982c5.009,1.917,10.036,3.804,14.419,6.978c5.285,3.826,9.657,8.944,12.95,14.548
	c1.585,2.696,2.943,5.501,4.131,8.38c-1.489,0.517-2.897,1.482-4.552,2.3c-3.302,1.633-6.679,3.108-10.189,4.24
	c-7.515,2.422-15.556,3.326-23.173,0.791C60.199,232.844,56.746,217.162,51.964,203.807z M112.093,209.101
	c-5.32-5.972-13.218-11.953-21.562-14.046c1.127-0.825,2.225-1.66,3.281-2.489c8.248-6.468,15.113-14.326,19.211-24.029
	c0.648-1.534-0.986-2.956-2.34-1.805c-5.914,5.027-11.712,10.484-18.037,14.987c-6.119,4.357-12.832,9.435-19.997,11.911
	c-3.987,1.378-7.844,0.812-11.937,0.294c-0.694-0.088-1.38-0.151-2.064-0.204c1.142-3.373,1.035-7.357-0.309-10.343
	c-1.487-3.305-4.337-4.603-6.507-7.253c-2.759-3.371-1.925-7.826-2.436-11.873c-1.086-8.604-8.158-13.989-15.938-14.835
	c5.185-4.517,10.585-8.74,15.711-12.731c7.167-5.579,14.658-10.786,22.351-15.612c3.729-2.339,7.504-4.618,11.446-6.582
	c3.216-1.601,6.619-2.76,9.865-4.259c0.154,1.044,0.393,2.074,0.762,3.075c0.789,2.141,4.178,2.564,4.783,0
	c1.562-6.614,3.632-13.346,8.113-18.616c1.994-2.345,4.315-4.387,7.011-5.881c1.543-0.855,3.122-1.509,4.828-1.953
	c0.896-0.262,1.81-0.443,2.741-0.544c0.289,0.006,0.526,0.009,0.739,0.01c-0.304,0.766-0.572,2.685-0.661,3.069
	c-0.339,1.46-0.778,2.917-1.325,4.313c-1.149,2.931-2.767,5.71-4.62,8.25c-3.494,4.789-7.936,8.854-10.844,14.072
	c-0.723,1.297,0.464,2.507,1.774,2.307c1.864-0.284,3.62-0.86,5.279-1.644c0.878,1.468,2.162,2.797,3.757,3.794
	c3.596,2.249,6.586,4.315,9.438,7.489c1.337,1.487,2.458,3.019,3.622,4.513c2.776,6.84,2.225,14.344,1.453,21.592
	c-0.949,8.914-1.701,17.653-1.154,26.631c0.398,6.545,0.545,14.527,4.013,20.351c1.414,2.376,3.609,4.443,6.207,5.425
	c1.101,0.416,2.286,0.713,3.473,0.757c1.721,0.065,3.923-1.077,5.523-0.81c3.079,0.515,2.443,6.812,2.683,9.324
	c0.376,3.924,0.537,7.964,1.219,11.857c-4.901,4.128-9.813,8.243-14.858,12.195c-2.385,1.868-4.811,3.701-7.281,5.481
	C126.292,232.204,121.148,219.266,112.093,209.101z M122.832,298.629c-0.681,3.576-1.687,9.249-4.781,11.903
	c-0.287,0.246-0.592,0.467-0.917,0.657c-3.169,1.858-4.828-0.085-4.609-3.336c0.328-4.889,4.585-10.71,7.608-14.389
	c1.097-1.335,2.451-2.612,3.793-3.914C123.383,292.533,123.389,295.708,122.832,298.629z M115.802,289.731
	c-2.793-1.661-5.596-3.477-2.841-7.093c2.383-3.129,6.881-5.445,10.826-6.925c0.453,2.245,0.924,4.485,1.451,6.708
	C121.711,283.616,118.468,286.57,115.802,289.731z M130.839,312.189c-2.047-0.591-2.784-1.865-3.717-3.387
	c1.325-2.773,2.54-6.163,3.317-9.672c0.901,2.216,1.887,4.405,2.996,6.555c1.031,2.001,2.161,3.96,3.389,5.858
	C134.862,312.16,132.899,312.784,130.839,312.189z M139.676,285.876c3.808-0.482,7.745-1.881,11.457-3.762
	c1.047,1.884,2.319,3.785,3.778,5.536c0.811,1.551,1.452,3.169,1.75,4.873c0.602,3.442-0.337,8.294-4.276,9.216
	C145.232,303.415,142.401,292.553,139.676,285.876z M132.047,493.476c-4.829-0.003-10.61-1.292-14.489-4.367
	c-3.29-2.607-0.378-6.068,1.041-9.247c1.399-3.134,2.779-6.277,4.141-9.427c1.304-0.359,2.607-0.708,3.902-0.87
	c4.166-0.522,8.415-0.207,12.481,0.816c3.802,0.956,7.381,2.518,10.654,4.678c1.082,0.714,2.155,1.542,3.266,2.297
	C149.589,486.429,142.681,493.483,132.047,493.476z M220.429,493.009c-5.104,3.067-18.21,3.94-21.97-2.035
	c-2.162-3.436,0.022-8.841,0.709-12.444c4.225-1.388,8.187-3.352,12.693-4.013c4.019-0.59,8.852,0.697,12.65-0.834
	C225.978,480.695,227.334,488.859,220.429,493.009z M222.795,465.429c-3.925-1.329-9.125-0.464-12.764,0.136
	c-3.157,0.521-6.572,1.394-9.675,2.808c0.058-1.236,0.09-2.473,0.083-3.707c-0.048-8.569-1.393-17.031-3.642-25.284
	c-2.519-9.244-5.599-18.347-7.374-27.78c-1.471-7.817-2.526-17.265-1.027-25.484c1.913-2.243,3.833-4.484,5.698-6.758
	c2.883-3.515,5.708-7.077,8.437-10.703c3.267,2.773,7.778,4.773,11.07,6.314c0.677,0.317,1.37,0.601,2.055,0.903
	c-2.628,5.583-3.403,12.197-3.915,18.191c-0.715,8.384-0.121,16.798,1.03,25.114C214.939,434.841,219.459,450.006,222.795,465.429z
	 M360.991,484.575c-2.471,4.383-5.794,5.165-10.601,5.357c-2.303,0.092-11.267,0.152-9.536-3.357c0.641-1.3,2.78-2.693,3.753-3.718
	c1.26-1.327,2.462-2.705,3.617-4.125c0.705-0.867,1.393-1.747,2.069-2.636c2.301-0.046,4.612-0.38,6.942-0.213
	c2.509,0.179,4.697,1.805,7.01,2.445C363.22,480.449,362.14,482.537,360.991,484.575z M372.094,459.341
	c-1.444,3.919-2.959,7.869-4.602,11.766c-1.952-2.017-5.183-3.261-7.637-3.605c-1.11-0.156-2.401-0.24-3.756-0.224
	c3.411-6.108,6.041-12.793,7.945-19.49c4.064-14.3,4.112-32.003-12.515-37.509c-8.283-2.743-16.527-2.523-23.073-9.151
	c-5.621-5.691-8.047-13.665-8.999-21.573c7.262-2.458,14.844-5.949,19.956-11.484c4.157,9.752,10.545,18.543,18.461,25.658
	c8.482,7.623,18.567,13.354,29.31,17.183C382.039,427.026,377.96,443.418,372.094,459.341z M430.976,495.159
	c-0.55,1.716-1.074,5.301-2.234,6.716c-1.32,1.611-2.667,0.897-4.486,0.46c-2.718-0.653-10.503-1.682-11.358-4.96
	c-0.788-3.022,2.955-7.71,4.364-10.202c0.168-0.297,0.323-0.599,0.488-0.898c2.913,0.446,5.972,0.514,8.775,1.074
	c2.229,0.445,4.337,1.241,6.445,1.573C432.308,491.003,431.643,493.081,430.976,495.159z M429.674,267.1
	c-0.417,8.845-3.338,17.211-5.993,25.576c-2.547,5.727-4.461,11.674-6.608,17.668c-3.062,8.546-6.611,17.064-8.494,25.973
	c-1.792,8.476-2.407,17.619,0.327,25.972c2.343,7.158,6.589,13.484,11.485,19.136c9.914,11.447,26.47,19.144,28.248,35.674
	c0.894,8.31-0.966,16.545-2.749,24.607c-1.998,9.037-4.255,18.014-6.764,26.923c-1.045,3.711-2.152,7.404-3.282,11.09
	c-2.597-1.349-5.867-1.786-8.771-2.096c-1.628-0.174-3.352-0.239-5.071-0.129c0.209-0.494,0.425-0.984,0.626-1.482
	c3.099-7.657,5.216-15.723,6.429-23.891c1.188-7.998,1.548-16.147,0.929-24.215c-0.549-7.152-2.47-13.665-8.445-18.099
	c-5.42-4.022-12.221-5.138-18.677-6.46c-7.139-1.462-14.125-3.633-20.674-6.858c-14.882-7.328-28.163-19.31-34.366-34.976
	c-6.314-15.945-5.562-34.97,2.175-50.338c1.268-2.519-2.164-5.697-4.169-3.216c-5.042,6.238-8.641,12.477-10.36,20.389
	c-1.708,7.862-1.845,15.998-0.614,23.934c0.401,2.581,0.974,5.121,1.677,7.619c-3.661,1.315-7.149,3.108-10.696,4.719
	c-5.359,2.435-10.956,4.418-16.65,5.908c-11.856,3.104-24.189,4.243-36.417,4.412c-12.406,0.171-24.844-0.89-36.956-3.644
	c-6.01-1.366-11.913-3.177-17.624-5.498c-2.952-1.2-6.533-3.444-10.079-4.875c5.112-7.423,9.721-15.172,13.479-23.435
	c1.424-3.132-2.634-5.566-4.631-2.706c-15.624,22.374-36.39,41.094-50.792,64.331c-6.806,10.982-9.598,22.539-9.949,35.387
	c-0.298,10.92,0.807,22.239-0.782,33.124c-4.465-2.925-10.326-4.757-14.019-5.564c-4.896-1.071-9.927-1.255-14.884-0.542
	c4.065-9.829,7.698-19.886,9.297-30.422c0.958-6.313,0.676-12.517,0.967-18.864c0.346-7.532,3.498-12.942,7.27-19.19
	c7.8-12.917,13.998-26.544,19.024-40.761c2.527-7.148,4.659-14.402,6.381-21.786c1.772-7.597,3.651-15.517,2.823-23.339
	c-0.197-1.857-2.929-3.156-3.937-1.066c-2.637,5.468-4.122,11.333-5.763,17.158c-0.661-0.407-1.312-0.828-1.951-1.265
	c-1.15-1.472-2.678-2.673-3.995-4.099c-2.184-2.365-4.45-4.675-6.41-7.232c-0.65-0.848-1.271-1.716-1.878-2.594
	c2.409,0.737,5.006,0.735,7.555-0.343c4.763-2.013,7.587-7.14,7.96-12.156c0.026-0.354,0.033-0.704,0.035-1.054
	c3.59,1.322,7.546,1.177,11.608-1.471c5.118-3.336,5.863-8.627,4.594-14.085c4.128,0.388,8.37-1.034,10.799-4.626
	c3.73-5.515,3.139-13.131-0.057-19.209c3.925-1.126,7.421-3.79,9.824-7.142c6.142-8.566,7.336-20.171,6.188-31.066
	c2.049,1.658,4.461,3.3,7.035,4.643c-0.23,4.539,0.595,9.303,0.849,13.698c0.386,6.654,0.258,13.352-1.189,19.883
	c-1.36,6.138-3.637,12.17-6.527,17.746c-2.441,4.71-5.191,9.659-4.249,15.165c1.741,10.177,12.68,15.348,21.524,17.937
	c5.842,1.71,11.899,2.5,17.92,3.28c3.364,0.436,7.917,1.659,11.909,1.572c-0.413,1.648-0.646,3.332-0.586,5.056
	c0.354,10.173,10.326,14.663,18.976,10.377c6.651-3.296,12.585-9.514,16.266-16.332c18.215,5.766,39.691-6.561,47.011-23.855
	c4.552-10.755,3.248-21.91-0.604-32.659c-2.087-5.823-4.652-11.5-6.114-17.529c-1.079-4.448-0.93-8.857-0.88-13.317
	c1.059-0.298,2.104-0.597,3.115-0.893c15.515-4.541,30.017-14.91,46.598-14.253C409.014,208.655,431.09,237.045,429.674,267.1z
	 M490.179,366.989c-7.609-2.987-4.534-15.584-12.427-18.358c-3.437-1.208-7.006,0.157-9.67,2.434
	c-1.264,1.08-1.886,2.733-3.417,1.484c-1.405-1.145-1.465-4.535-1.735-6.189c-0.732-4.481-1.392-8.976-2.053-13.468
	c-0.528-3.586-0.313-8.633-2.802-11.569c-5.713-6.74-12.802,4.074-16.102,7.758c-0.414,0.463-0.731,0.818-0.982,1.099
	c0.229-0.27,0.418-0.503,0.399-0.52c-0.918-0.852-1.584-1.982-2.184-3.069c-1.099-1.991-1.781-4.126-2.338-6.322
	c-1.339-5.282-1.854-10.701-1.855-16.139c-0.002-4.596,0.253-9.158,0.64-13.727c1.935-5.326,3.571-10.755,4.451-16.358
	c2.419-15.39-0.913-31.282-9.352-44.409c-7.11-11.061-17.215-19.311-29.068-24.461c2.308-0.75,4.661-1.41,6.828-2.056
	c4.294-1.279,8.652-2.234,13.125-2.59c8.969-0.713,18.456,0.277,26.753,3.926c16.444,7.232,21.952,25.698,20.881,42.333
	c-1.251,19.435-6.493,38.082-1.017,57.383c2.417,8.518,5.791,17.789,11.251,24.852c3.603,4.66,7.377,7.092,11.977,8.239
	c4.606,3.807,8.892,8.029,9.554,14.316C501.571,356.665,497.6,369.902,490.179,366.989z"/>
<path d="M258.421,61.928c-0.622-1.473-2.393-2.596-4.036-2.168c-0.368,0.006-0.725,0.066-1.124,0.234
	c-0.547,0.231-0.966,0.549-1.336,1.028c-0.696,0.901-0.931,2.009-0.645,3.123c0.637,2.48,3.46,3.579,5.651,2.328
	C258.509,65.573,259.112,63.565,258.421,61.928z"/>
<path d="M29.758,169.743c-4.497-2.604-9.884,2.111-10.235,6.637c-0.24,3.1,2.289,5.685,5.324,5.824
	c0.041,0.002,0.084-0.007,0.125-0.006c1.333,0.106,2.729-0.329,3.839-1.136c1.636-1.189,3.196-2.967,3.588-5.007
	C32.865,173.628,31.965,171.02,29.758,169.743z"/>
<path d="M85.113,135.121c-2.814-2.217-6.467-2.971-9.96-2.135c-6.307,1.508-11.783,9.748-7.198,15.519
	c1.269,1.597,4.05,0.983,4.95-0.638c1.284-2.31,1.082-5.594,4.121-6.458c3.281-0.933,3.729,2.626,5.499,4.388
	c2.177,2.168,5.29,0.895,6.304-1.664C90.152,140.793,87.673,137.138,85.113,135.121z"/>
<g>
</g>
<g>
</g>
<g>
</g>
<g>
</g>
<g>
</g>
<g>
</g>
<g>
</g>
<g>
</g>
<g>
</g>
<g>
</g>
<g>
</g>
<g>
</g>
<g>
</g>
<g>
</g>
<g>
</g>
</svg>
